Hanif_Deep_5_0_grf.mot
version=1
nRows=37
nColumns=19
inDegrees=yes
endheader
time	right_ground_force_vx	right_ground_force_vy	right_ground_force_vz	right_ground_force_px	right_ground_force_py	right_ground_force_pz	right_ground_torque_x	right_ground_torque_y	right_ground_torque_z	left_ground_force_vx	left_ground_force_vy	left_ground_force_vz	left_ground_force_px	left_ground_force_py	left_ground_force_pz	left_ground_torque_x	left_ground_torque_y	left_ground_torque_z
0.000000	-2.106580	270.234000	55.247200	0.210070	0.000000	-1.433110	-19.698700	-0.483512	2.767670	-3.292870	295.531000	-55.511800	0.220326	0.000000	-0.975436	21.441700	-1.728640	6.588290
0.005000	-2.024430	270.649000	55.450900	0.211460	0.000000	-1.433440	-19.639100	-0.550466	3.149160	-3.317520	296.506000	-55.681200	0.220321	0.000000	-0.975259	21.458600	-1.622200	6.587520
0.010000	-1.784700	270.432000	55.311400	0.211088	0.000000	-1.433410	-19.632500	-0.548468	3.038300	-3.377390	293.195000	-54.839100	0.220575	0.000000	-0.975894	21.407600	-1.712630	6.609890
0.015000	-1.847930	268.182000	55.109500	0.211098	0.000000	-1.433020	-19.574900	-0.498509	3.027250	-3.367830	293.113000	-55.419200	0.221509	0.000000	-0.975846	21.386900	-1.599640	6.878870
0.020000	-1.617300	271.093000	54.931600	0.211119	0.000000	-1.433660	-19.612100	-0.394841	3.081850	-3.000560	294.359000	-54.933200	0.220776	0.000000	-0.975510	21.375400	-1.724210	6.691000
0.025000	-1.894970	270.710000	54.738700	0.210912	0.000000	-1.433330	-19.675700	-0.432326	3.015200	-3.427900	294.720000	-54.984300	0.220251	0.000000	-0.975702	21.461700	-1.648400	6.530220
0.030000	-1.706220	270.438000	55.232500	0.210559	0.000000	-1.433080	-19.721400	-0.498735	2.898080	-3.031130	295.625000	-54.938600	0.219968	0.000000	-0.975023	21.322600	-1.689900	6.461640
0.035000	-1.887360	270.220000	55.471300	0.210605	0.000000	-1.433170	-19.680700	-0.504625	2.911120	-3.213880	295.224000	-55.079100	0.220642	0.000000	-0.975293	21.375400	-1.650690	6.657380
0.040000	-2.005180	269.460000	54.932100	0.211541	0.000000	-1.433050	-19.658400	-0.583773	3.149870	-2.996250	294.530000	-54.759000	0.220050	0.000000	-0.974980	21.231400	-1.750140	6.475000
0.045000	-2.114870	270.493000	55.361700	0.210360	0.000000	-1.433280	-19.672300	-0.454824	2.857990	-2.872070	293.803000	-54.455200	0.219639	0.000000	-0.976367	21.584400	-1.677660	6.318280
0.050000	-2.020870	270.332000	54.932400	0.210927	0.000000	-1.433170	-19.689700	-0.450971	3.014080	-2.831260	295.510000	-54.982600	0.219617	0.000000	-0.975328	21.403500	-1.841340	6.378270
0.055000	-2.088490	270.033000	55.042700	0.210083	0.000000	-1.432980	-19.719100	-0.455249	2.774090	-2.704390	293.973000	-54.862500	0.219693	0.000000	-0.976165	21.536300	-1.738090	6.352110
0.060000	-2.208860	271.246000	55.287200	0.210297	0.000000	-1.434540	-19.384900	-0.562380	2.826640	-2.684450	296.529000	-54.960900	0.219157	0.000000	-0.974874	21.339700	-1.746030	6.235090
0.065000	-2.233510	270.683000	55.245900	0.211037	0.000000	-1.432220	-19.973600	-0.486992	3.046250	-2.769700	293.688000	-54.936700	0.219896	0.000000	-0.976002	21.468400	-1.745730	6.411920
0.070000	-2.354280	270.532000	55.038000	0.210694	0.000000	-1.432690	-19.836000	-0.469362	2.952560	-3.000480	295.020000	-55.101700	0.219960	0.000000	-0.975630	21.458600	-1.750050	6.461720
0.075000	-1.993540	270.196000	54.940100	0.211071	0.000000	-1.433000	-19.725300	-0.498278	3.043390	-2.231960	295.036000	-54.811100	0.219430	0.000000	-0.975344	21.366700	-1.743430	6.284380
0.080000	-2.099140	268.919000	54.910900	0.211504	0.000000	-1.432030	-19.892600	-0.568775	3.138150	-2.635890	296.244000	-54.854900	0.219232	0.000000	-0.974944	21.339900	-1.772360	6.256010
0.085000	-2.487790	269.821000	54.758400	0.211413	0.000000	-1.432360	-19.871500	-0.529616	3.136030	-2.212570	294.870000	-54.965800	0.219188	0.000000	-0.975919	21.523800	-1.746000	6.210140
0.090000	-2.287090	272.272000	54.863300	0.212073	0.000000	-1.432380	-20.048600	-0.407249	3.372360	-1.903410	294.510000	-54.982000	0.219487	0.000000	-0.974786	21.161000	-1.760600	6.293270
0.095000	-2.140780	271.788000	55.476400	0.209955	0.000000	-1.432810	-19.894100	-0.438755	2.760710	-2.817900	292.795000	-55.046700	0.219134	0.000000	-0.976573	21.570900	-1.775800	6.173060
0.100000	-1.982520	269.130000	54.923400	0.211043	0.000000	-1.431580	-20.031700	-0.470287	3.029970	-2.292540	293.118000	-54.973200	0.218985	0.000000	-0.976240	21.491300	-1.788030	6.127300
0.105000	-1.531940	269.292000	54.823800	0.211493	0.000000	-1.432610	-19.765900	-0.453680	3.153820	-2.557380	296.634000	-54.531900	0.218922	0.000000	-0.974812	21.326900	-1.697960	6.148490
0.110000	-1.798200	271.633000	55.170800	0.210965	0.000000	-1.432500	-19.965300	-0.576184	3.011180	-2.331390	294.012000	-54.878300	0.219358	0.000000	-0.975344	21.293400	-1.727790	6.243740
0.115000	-1.739750	270.612000	55.004600	0.211179	0.000000	-1.432050	-20.015000	-0.436781	3.087540	-2.401900	293.292000	-55.009800	0.219756	0.000000	-0.975500	21.288800	-1.820320	6.372100
0.120000	-1.965370	271.702000	54.806500	0.211359	0.000000	-1.432470	-19.979400	-0.419488	3.156290	-2.377650	292.886000	-54.804100	0.219762	0.000000	-0.975785	21.342200	-1.782010	6.356470
0.125000	-2.311670	273.229000	55.462200	0.210649	0.000000	-1.433260	-19.875900	-0.514925	2.959010	-2.702560	294.423000	-54.927700	0.219565	0.000000	-0.975822	21.468400	-1.753810	6.324730
0.130000	-1.725460	270.152000	55.278400	0.210614	0.000000	-1.433250	-19.656000	-0.433473	2.924310	-2.182130	293.362000	-54.775900	0.220132	0.000000	-0.976084	21.462400	-1.724420	6.463780
0.135000	-2.028000	269.232000	55.371300	0.211472	0.000000	-1.431570	-20.042200	-0.443668	3.159190	-2.418510	293.453000	-54.885400	0.219471	0.000000	-0.976416	21.569000	-1.750420	6.274260
0.140000	-1.853380	269.231000	55.262800	0.211044	0.000000	-1.432270	-19.851500	-0.501119	3.023990	-2.765930	293.531000	-54.448100	0.219200	0.000000	-0.975652	21.353100	-1.663190	6.175380
0.145000	-1.952660	269.878000	55.107800	0.210768	0.000000	-1.432520	-19.831500	-0.463013	2.962020	-2.424000	293.911000	-54.862400	0.218993	0.000000	-0.976101	21.509600	-1.728470	6.132380
0.150000	-2.599190	269.292000	54.544200	0.210923	0.000000	-1.432530	-19.787400	-0.494558	3.000760	-2.655280	292.680000	-54.869100	0.218530	0.000000	-0.976319	21.486200	-1.771260	5.982420
0.155000	-1.911030	268.462000	55.074500	0.210826	0.000000	-1.432310	-19.784100	-0.554231	2.943850	-2.306390	293.383000	-55.427000	0.218818	0.000000	-0.975274	21.227000	-1.727340	6.075840
0.160000	-2.483010	270.916000	54.572800	0.211511	0.000000	-1.433070	-19.759900	-0.490554	3.182820	-2.552030	294.043000	-54.788900	0.219330	0.000000	-0.975937	21.473000	-1.785340	6.248650
0.165000	-2.389730	269.951000	55.279400	0.211638	0.000000	-1.432790	-19.766100	-0.513946	3.203880	-2.069880	293.482000	-54.966500	0.218893	0.000000	-0.976593	21.619100	-1.751470	6.095880
0.170000	-2.386810	267.624000	54.900800	0.211503	0.000000	-1.431290	-19.995800	-0.585362	3.124640	-2.629570	294.423000	-54.919200	0.219097	0.000000	-0.976356	21.624700	-1.790170	6.188050
0.175000	-2.237120	270.821000	55.047500	0.211952	0.000000	-1.433110	-19.741400	-0.587156	3.284280	-2.633650	293.850000	-54.816800	0.218599	0.000000	-0.976033	21.487500	-1.760890	6.019870
0.180000	-1.999650	267.938000	54.205600	0.210835	0.000000	-1.432080	-19.808300	-0.486666	2.953430	-2.309960	295.007000	-54.967700	0.218848	0.000000	-0.975464	21.401200	-1.832130	6.125900
